<svg width="235" height="234" viewBox="0 0 235 234" fill="none" xmlns="http://www.w3.org/2000/svg">
<path fill-rule="evenodd" clip-rule="evenodd" d="M97.178 1.50703C82.209 4.21903 64.506 11.515 51.537 20.317C43.716 25.625 30.09 38.768 23.907 46.968C17.76 55.121 10.056 70.013 6.58401 80.455C-0.94299 103.091 -0.93799 131.002 6.59801 153.545C12.329 170.689 20.795 184.667 33.4 197.797C43.544 208.363 51.953 214.71 64 220.894C81.993 230.131 97.936 234 118 234C138.064 234 154.007 230.131 172 220.894C184.047 214.71 192.456 208.363 202.6 197.797C224.079 175.424 235 148.189 235 117C235 110.544 234.339 101.491 233.53 96.881C225.079 48.693 186.261 9.85703 138.164 1.46903C127.894 -0.321967 107.166 -0.302967 97.178 1.50703ZM123.128 54.566C128.362 57.273 129 60.52 129 84.468V106H150.532C174.48 106 177.727 106.638 180.434 111.872C182.412 115.698 182.412 118.302 180.434 122.128C177.727 127.362 174.48 128 150.532 128H129V149.532C129 173.48 128.362 176.727 123.128 179.434C119.302 181.412 116.698 181.412 112.872 179.434C107.638 176.727 107 173.48 107 149.532V128H85.468C61.52 128 58.273 127.362 55.566 122.128C53.588 118.302 53.588 115.698 55.566 111.872C58.273 106.638 61.52 106 85.468 106H107V84.649C107 61.028 107.577 57.839 112.381 54.91C116.177 52.595 119.133 52.5 123.128 54.566Z" fill="#FF9900"/>
</svg>
