<svg width="256" height="256" viewBox="0 0 256 256" fill="none" xmlns="http://www.w3.org/2000/svg">
<path fill-rule="evenodd" clip-rule="evenodd" d="M114 0.622956C84.49 4.37996 58.07 17.247 37.608 37.829C19.574 55.97 7.86899 77.636 2.40099 103C-0.161008 114.885 -0.161008 141.115 2.40099 153C13.422 204.125 51.875 242.578 103 253.599C114.885 256.161 141.115 256.161 153 253.599C178.364 248.131 200.03 236.426 218.171 218.392C236.134 200.533 248.122 178.407 253.599 153C256.161 141.115 256.161 114.885 253.599 103C242.722 52.545 205.059 14.306 155 2.89395C146.652 0.990952 121.887 -0.381044 114 0.622956ZM111.969 94.5C120.554 103.025 128.017 110 128.553 110C129.089 110 135.597 103.894 143.014 96.431C150.431 88.968 157.715 82.218 159.2 81.431C167.208 77.187 178 83.5309 178 92.4819C178 97.5859 174.996 101.708 161.603 114.986C154.121 122.403 148 128.923 148 129.475C148 130.026 155.088 137.575 163.75 146.25L179.5 162.023V167.446C179.5 172.085 179.075 173.312 176.557 175.941C172.966 179.689 168.145 181.189 163.744 179.927C161.572 179.304 155.411 173.896 144.789 163.289L129.052 147.575L112.243 164.202C98.215 178.077 94.811 180.945 91.674 181.533C81.425 183.456 72.58 172.617 77.107 163.684C77.716 162.483 85.473 154.188 94.346 145.25L110.477 129L94.666 113.166C80.545 99.025 78.797 96.903 78.317 93.328C77.244 85.328 82.984 79 91.314 79H96.359L111.969 94.5Z" fill="#FF9900"/>
</svg>
