<svg width="256" height="256" viewBox="0 0 256 256" fill="none" xmlns="http://www.w3.org/2000/svg">
<path fill-rule="evenodd" clip-rule="evenodd" d="M113.5 0.620988C81.851 5.43799 59.201 16.609 37.905 37.905C19.095 56.715 8.03901 76.978 2.38701 103C-0.19899 114.904 -0.19899 141.096 2.38701 153C8.03901 179.022 19.095 199.285 37.905 218.095C56.715 236.905 76.978 247.961 103 253.613C114.904 256.199 141.096 256.199 153 253.613C179.022 247.961 199.285 236.905 218.095 218.095C236.914 199.276 248.008 178.936 253.599 153C256.161 141.115 256.161 114.885 253.599 103C248.008 77.064 236.914 56.724 218.095 37.905C199.627 19.437 180.31 8.71099 155 2.87099C146.694 0.953988 120.604 -0.461012 113.5 0.620988ZM192.2 78.8C198.564 85.164 203 90.403 203 91.554C203 92.799 185.795 110.71 155.61 140.89C113.848 182.645 107.935 188.2 105.818 187.669C102.648 186.873 53 136.768 53 134.364C53 131.808 73.926 111 76.496 111C77.775 111 83.701 116.184 92.498 124.998L106.468 138.995L142.016 103.498C164.014 81.531 178.295 68 179.482 68C180.588 68 185.975 72.575 192.2 78.8Z" fill="#FF9900"/>
</svg>
