<svg width="580" height="580" viewBox="0 0 580 580" fill="none" xmlns="http://www.w3.org/2000/svg">
<circle cx="290" cy="290" r="227" fill="white" fill-opacity="0.2" stroke="white" stroke-width="8"/>
<path fill-rule="evenodd" clip-rule="evenodd" d="M280.234 163.235C279.43 164.039 279.035 168.508 279.035 176.765C279.035 185.796 278.7 189.181 277.785 189.412C277.098 189.585 272.641 190.666 267.883 191.812C231.081 200.675 202.675 229.081 193.812 265.883C192.666 270.641 191.585 275.098 191.412 275.785C191.181 276.7 187.797 277.035 178.766 277.035C170.509 277.035 166.039 277.43 165.235 278.234C163.589 279.88 163.589 300.189 165.235 301.835C166.039 302.639 170.509 303.035 178.766 303.035C187.797 303.035 191.181 303.37 191.412 304.285C191.585 304.973 192.666 309.428 193.812 314.186C202.675 350.988 231.081 379.394 267.883 388.257C272.641 389.403 277.098 390.484 277.785 390.657C278.7 390.888 279.035 394.273 279.035 403.304C279.035 411.561 279.43 416.03 280.234 416.834C281.88 418.48 302.189 418.48 303.835 416.834C304.639 416.03 305.035 411.561 305.035 403.304C305.035 394.273 305.37 390.888 306.285 390.657C306.973 390.484 311.428 389.403 316.186 388.257C334.662 383.807 349.842 375.266 363.615 361.57C377.143 348.117 385.788 332.741 390.257 314.186C391.403 309.428 392.484 304.973 392.657 304.285C392.888 303.37 396.273 303.035 405.304 303.035C413.561 303.035 418.03 302.639 418.834 301.835C419.616 301.053 420.034 296.945 420.034 290.035C420.034 283.124 419.616 279.016 418.834 278.234C418.03 277.43 413.561 277.035 405.304 277.035C396.273 277.035 392.888 276.7 392.657 275.785C392.484 275.098 391.403 270.641 390.257 265.883C381.394 229.081 352.988 200.675 316.186 191.812C311.428 190.666 306.973 189.585 306.285 189.412C305.37 189.181 305.035 185.796 305.035 176.765C305.035 168.508 304.639 164.039 303.835 163.235C302.189 161.589 281.88 161.589 280.234 163.235ZM306.827 216.615C359.068 227.326 383.999 287.91 354.214 331.771C324.228 375.927 259.841 375.927 229.855 331.771C212.991 306.938 212.936 273.164 229.718 248.516C247.038 223.079 277.296 210.561 306.827 216.615ZM279.035 257.247C275.215 258.712 271.676 261.216 267.447 265.445C259.915 272.98 257.035 279.781 257.035 290.035C257.035 300.29 259.915 307.089 267.447 314.622C274.98 322.154 281.78 325.035 292.035 325.035C302.29 325.035 309.089 322.154 316.622 314.622C324.154 307.089 327.035 300.29 327.035 290.035C327.035 279.78 324.154 272.98 316.622 265.447C312.206 261.032 308.945 258.766 304.747 257.197C297.056 254.324 286.609 254.343 279.035 257.247Z" fill="#FF9900"/>
<path d="M580 290L532 317.713V262.287L580 290Z" fill="white"/>
<path d="M0 290L48 262.287L48 317.713L0 290Z" fill="white"/>
<path d="M290 0L317.713 48H262.287L290 0Z" fill="white"/>
<path d="M290 580L262.287 532H317.713L290 580Z" fill="white"/>
</svg>
